<?xml version="1.0" encoding="iso-8859-1"?>
<!-- Generator: Adobe Illustrator 19.0.0, SVG Export Plug-In . SVG Version: 6.00 Build 0)  -->
<svg version="1.1" id="Capa_1" xmlns="http://www.w3.org/2000/svg" xmlns:xlink="http://www.w3.org/1999/xlink" x="0px" y="0px"
	 viewBox="0 0 231.848 231.848" style="enable-background:new 0 0 231.848 231.848;" xml:space="preserve">
<g>
	<path style="fill:#DB9F15;" d="M122.333,203.352h14.515v-25.939h20.63v25.939h1.553c3.985,0,7.215,3.23,7.215,7.215
		c0,3.984-3.23,7.215-7.215,7.215h-36.698c-3.984,0-7.214-3.231-7.214-7.215C115.119,206.582,118.349,203.352,122.333,203.352z"/>
	<path style="fill:#FFB819;" d="M138.965,203.352h14.515v-25.939h20.63v25.939h1.553c3.984,0,7.215,3.23,7.215,7.215
		c0,3.984-3.23,7.215-7.215,7.215h-36.698c-3.984,0-7.214-3.231-7.214-7.215C131.751,206.582,134.981,203.352,138.965,203.352z"/>
	<path style="fill:#D5D6D9;" d="M82.428,82.559V14.066h21.227c21.588,0,39.09,17.502,39.09,39.09v29.403h89.103v31.873
		c0,41.262-33.449,74.71-74.71,74.71l0,0c-41.261,0-74.71-33.448-74.71-74.71V82.559L82.428,82.559z"/>
	<g>
		<path style="fill:#FFB819;" d="M0,29.783c0,45.523,36.904,82.427,82.428,82.427V29.783H0z"/>
		<rect y="14.067" style="fill:#FFCD6C;" width="82.428" height="15.716"/>
	</g>
	<g>
		<circle style="fill:#FFFFFF;" cx="100.758" cy="49.004" r="11.523"/>
		<circle style="fill:#004987;" cx="100.758" cy="49.004" r="5.761"/>
	</g>
	<path style="fill:#BBBFC3;" d="M206.235,91.946c0,26.954-21.851,48.806-48.806,48.806s-48.806-21.852-48.806-48.806H206.235z"/>
</g>
<g>
</g>
<g>
</g>
<g>
</g>
<g>
</g>
<g>
</g>
<g>
</g>
<g>
</g>
<g>
</g>
<g>
</g>
<g>
</g>
<g>
</g>
<g>
</g>
<g>
</g>
<g>
</g>
<g>
</g>
</svg>
